<?xml version="1.0" standalone="no"?>
<!DOCTYPE svg PUBLIC "-//W3C//DTD SVG 20010904//EN"
 "http://www.w3.org/TR/2001/REC-SVG-20010904/DTD/svg10.dtd">
<svg version="1.0" xmlns="http://www.w3.org/2000/svg"
 width="500.000000pt" height="500.000000pt" viewBox="0 0 500.000000 500.000000"
 preserveAspectRatio="xMidYMid meet">
<metadata>
Created by potrace 1.14, written by Peter Selinger 2001-2017
</metadata>
<g transform="translate(0.000000,500.000000) scale(0.100000,-0.100000)"
fill="#000000" stroke="none">
<path d="M2970 4026 l0 -163 -122 -6 c-146 -7 -250 -31 -367 -87 -108 -52
-165 -93 -278 -203 l-92 -89 -198 70 c-251 89 -285 96 -414 90 -151 -8 -261
-51 -399 -157 -132 -101 -224 -241 -255 -386 -19 -90 -19 -250 0 -339 31 -149
136 -324 243 -407 l33 -26 -17 -89 c-24 -127 -22 -287 5 -399 79 -329 376
-626 704 -705 108 -26 288 -36 399 -21 l86 12 89 -88 c96 -96 181 -151 283
-185 91 -30 328 -37 420 -14 195 50 393 252 478 488 24 66 26 86 27 223 l0
150 -67 212 c-38 116 -68 216 -68 221 0 5 35 32 78 60 128 85 242 252 291 430
25 91 45 261 37 313 l-6 39 155 0 155 0 0 135 0 135 -190 2 -191 3 -33 78
c-92 212 -257 379 -474 481 l-62 30 0 178 0 178 -125 0 -125 0 0 -164z m85
-691 c92 -24 169 -71 239 -145 74 -79 115 -156 123 -232 5 -50 2 -61 -37 -134
-74 -137 -112 -196 -120 -187 -11 11 -140 356 -140 373 0 17 -59 80 -74 80 -6
0 -98 32 -205 72 l-193 72 23 19 c36 29 114 66 172 82 69 18 140 18 212 0z
m-1099 -332 c216 -80 394 -149 394 -153 0 -8 -125 -66 -225 -104 -268 -100
-574 -115 -702 -32 -49 31 -89 74 -102 109 -38 100 25 275 114 313 70 31 105
22 521 -133z m1023 -1002 c141 -364 161 -431 147 -506 -16 -86 -128 -158 -248
-159 -58 -1 -71 3 -109 29 -96 68 -134 171 -132 360 1 116 21 226 67 362 44
131 117 296 127 286 4 -4 71 -172 148 -372z"/>
</g>
</svg>
